<?xml version="1.0" encoding="UTF-8"?>
<!-- Created with Inkscape (http://www.inkscape.org/) -->
<svg width="256" height="128" version="1.1" viewBox="0 0 67.7 33.9" xmlns="http://www.w3.org/2000/svg">
 <g transform="matrix(.768 0 0 .768 20 2.4)" stroke-width=".265" aria-label="錦">
  <path d="m3.15 38.2c0-0.226 0.0903-0.316 0.226-0.361 0.135-0.0452 0.316-0.0903 0.497-0.0903l0.632-0.722c0.452-1.44 0.722-2.98 0.768-4.52 0.0452-1.58 0.135-3.12 0.361-4.65v-5.87l-0.135-0.135 0.271-3.34 4.11-1.44h0.632c0.226 0 0.452 0.0903 0.677 0.316 0 0.813-0.0903 1.63-0.226 2.35-0.135 0.768-0.316 1.54-0.542 2.26l-0.993 0.452c0 0.813 0.135 1.54 0.406 2.26 0.226 0.722 0.406 1.49 0.587 2.3l0.452-0.181c0.903-1.4 1.54-2.84 1.99-4.38 0.406-1.54 0.993-3.03 1.67-4.52h1.17l-0.316-1.31c-0.406-0.406-0.813-0.632-1.31-0.677-0.452-0.0452-0.858-0.226-1.17-0.632l-0.858 0.181-1.76-0.181-2.17 0.316h-0.452c0.226-1.22 0.361-2.35 0.497-3.57 0.0903-1.13 0.181-2.26 0.361-3.43l2.21-2.62 1.17-0.135-0.135-1.04-2.21-0.858v-0.316h-0.452v-0.271l-0.722 0.135v0.135c-0.948-0.0903-1.85 0.0452-2.66 0.361-0.858 0.361-1.63 0.677-2.44 1.08l-1.13-0.271h-0.452l-0.135 0.722v0.316h0.858v0.135h0.271l0.452 1.13c0.587 0 1.13-0.0903 1.54-0.316 0.406-0.181 0.903-0.406 1.4-0.677h0.406l0.316 0.587c-0.135 1.08-0.271 2.12-0.361 3.21-0.135 1.08-0.361 2.12-0.677 3.21h-0.271v-0.452l-0.452-0.316c-0.858-0.0903-1.67 0-2.35 0.316-0.632 0.316-1.35 0.632-1.99 1.04h-0.316c0-0.768-0.0903-1.49-0.271-2.12-0.226-0.632-0.452-1.26-0.768-1.81l-0.406-0.135-0.452-0.903 0.181-0.542v-0.181l-1.49 0.858-0.722-0.271h-0.452l0.452 0.722 0.722 0.452 2.62 3.66 0.452 0.135v0.406h-0.587v0.135l0.587 0.587 1.44 0.768-0.135 1.58h-0.903c-0.361 0-0.587 0.135-0.722 0.452v0.406l0.316 0.135 0.858 1.9h1.49l0.406 3.25v8.13l0.452 3.93-0.316 2.62zm-22-7.18c1.94-0.632 3.84-1.49 5.69-2.39 1.85-0.948 3.7-1.81 5.55-2.66l0.135-0.316-0.135-0.542 0.135-0.587c-0.813 0-1.54 0.135-2.21 0.361-0.677 0.226-1.35 0.452-2.03 0.768h-0.316l1.08-9.93c0.452-0.0452 0.948-0.135 1.49-0.271 0.542-0.0903 1.04-0.271 1.54-0.542v-0.452h0.316v-0.316h-0.452v-0.271l-1.04-0.406-1.17 0.135-0.858-0.316 0.181-0.452-0.452-1.9v-0.271c0.406 0 0.813-0.0452 1.22-0.181 0.452-0.0903 0.813-0.271 1.08-0.542l0.316-0.587-0.135-0.452-0.768-0.452h-3.03v0.316l-2.48 1.31h-0.993l0.542-1.04c0.0903-0.406 0.271-0.722 0.542-0.903 0.226-0.226 0.542-0.361 0.903-0.361 0.0903-0.813 0.226-1.54 0.361-2.3 0.135-0.722 0.587-1.35 1.26-1.94l-0.722-1.44-0.903-0.316-0.993-2.03h-0.316l-0.135 1.58-0.722 0.181c-0.497 2.8-1.4 5.42-2.75 7.86-1.35 2.44-2.71 4.83-4.11 7.27h-0.135v0.135l0.722 0.316 0.316-0.135 0.135 0.135 0.406-0.135c1.08-0.993 1.99-2.03 2.8-3.21 0.768-1.22 1.58-2.3 2.48-3.39l0.993 0.903 1.31 0.316-0.0903 0.542 0.361 1.76v0.858c-0.722 0.406-1.49 0.768-2.21 1.08-0.768 0.361-1.58 0.632-2.39 0.813 0.181 0.406 0.497 0.677 0.903 0.903 0.452 0.181 0.858 0.316 1.26 0.406 0.452 0.0903 0.903 0 1.31-0.226 0.406-0.181 0.768-0.406 1.13-0.632h0.452l0.181 0.542-0.316 5.6-1.44-0.316h-0.316l0.452 0.316v0.542h-0.271v0.316l0.722 0.271 0.271 0.587 0.587 0.406 0.135 0.452v0.452c-0.768 0.497-1.54 0.813-2.39 0.948-0.813 0.135-1.72 0.226-2.66 0.226l-0.316 0.587-0.722 0.271-0.587 0.722-1.49 0.587h0.181v0.452h-0.181zm17.2-5.24 0.316-0.271c0.0903-0.948 0.0452-1.9-0.0903-2.71-0.135-0.858-0.497-1.58-0.993-2.26l0.181-0.858h0.135l-0.858 0.587-1.49-0.316h-0.677v0.135h0.135v0.316l0.677 0.452-0.135 0.542 0.452 0.452v0.452c0.406 0.587 0.768 1.17 1.08 1.81 0.316 0.677 0.768 1.17 1.26 1.67zm-16.2-2.03h0.587c0.226-0.316 0.361-0.587 0.406-0.948 0.0452-0.316 0.0903-0.632 0.226-0.948l-0.452-0.452 0.135-0.677v-0.632h-0.452v0.316c-0.497 0-0.858-0.0452-1.26-0.181-0.406-0.0903-0.813-0.226-1.22-0.406l-0.0903 0.587 0.226 1.13 0.316 0.181 0.452 1.49c0.0903 0.271 0.271 0.406 0.542 0.406 0.226 0 0.452 0.0452 0.587 0.135zm7.59-1.9 1.76-0.677 0.587 0.135 1.31-0.135 0.858-1.35v-0.406l-0.993-1.35h-0.135v0.181l-2.21-0.858h-0.406v0.135h-0.181c0.226 0.181 0.406 0.406 0.542 0.632s0.226 0.497 0.226 0.813c-0.135 0.542-0.271 1.08-0.452 1.58-0.226 0.497-0.497 0.903-0.903 1.31zm17.3-6.14-1.13 0.316h-0.768l-0.677-1.13 1.44-0.903-0.181-0.406v-0.316l0.722 1.17 0.587 0.587zm-4.92-4.33 1.44-0.271c0.316-0.226 0.632-0.406 0.993-0.542 0.406-0.135 0.632-0.452 0.722-0.903v-0.452l-1.13-0.587c-0.768-0.135-1.49 0-2.08 0.316-0.677 0.361-1.35 0.587-2.17 0.722l0.768 0.993zm-10.1-4.38 1.17-0.452-0.135-0.858c-0.677-0.677-1.49-1.17-2.35-1.44-0.903-0.316-1.72-0.677-2.48-1.17l0.316 0.316v0.135h-0.316l0.587 1.13-0.271 0.903v0.316l0.858-0.181 0.858 0.181v0.271zm4.83-1.31 1.44-1.04 0.677 0.316 0.768-0.135 0.316-0.406 0.271-0.452 0.993-0.181c-0.0903-0.587 0.0452-1.08 0.406-1.44 0.316-0.406 0.542-0.813 0.632-1.31l-0.271-0.858-2.21-0.587h-0.587c-0.406 0.993-0.677 1.99-0.993 3.03-0.316 1.08-0.813 2.03-1.44 2.94z"/>
 </g>
 <g stroke-width=".17">
  <path d="m35.2 2.47 5.38 8.79h1.28v-7.79c0.0145-1.22 0.188-1.51 0.942-1.59l0.362-0.0435v-0.449h-3.58v0.449l0.507 0.0435c0.754 0.087 0.928 0.391 0.942 1.59v5.73l-4.73-7.81h-3.23v0.449l0.362 0.0435c0.754 0.087 0.928 0.377 0.942 1.59v5.7c-0.0145 1.22-0.188 1.51-0.942 1.59l-0.362 0.0435v0.449h3.58v-0.449l-0.507-0.0435c-0.754-0.087-0.928-0.391-0.942-1.59z" fill="#b7282e"/>
  <path d="m46.4 4.22h-0.493c-0.884 0.159-1.36 0.232-2.13 0.29v0.435l0.29 0.029c0.768 0.087 0.957 0.319 0.957 1.2v3.41c0 0.797-0.261 1.15-0.899 1.2l-0.362 0.029v0.435h3.89v-0.435l-0.348-0.029c-0.638-0.058-0.899-0.406-0.899-1.2zm-0.667-2.45c-0.493 0-0.884 0.391-0.884 0.87 0 0.493 0.391 0.884 0.884 0.884 0.478 0 0.87-0.391 0.87-0.884 0-0.478-0.391-0.87-0.87-0.87z" fill="#895b8a"/>
  <path d="m45.6 12.4h-0.522l-0.174 0.522c-0.812-0.493-1.64-0.71-2.74-0.71-0.957 0-1.73 0.232-2.32 0.696-0.623 0.493-1 1.2-1 1.9 0 0.565 0.246 1.17 0.638 1.57 0.449 0.449 1.22 0.797 2.35 1.09l1.94 0.493c1.44 0.348 1.93 0.783 1.93 1.65 0 1.23-1.13 2.16-2.61 2.16-0.725 0-1.48-0.232-2.15-0.638-0.841-0.536-1.42-1.2-2.02-2.35l-0.536 0.174 0.942 3.32h0.536l0.275-0.725c0.884 0.623 1.83 0.913 3 0.913 2.26 0 4.03-1.36 4.03-3.12 0-0.536-0.13-1.06-0.348-1.41-0.435-0.696-1.16-1.09-2.73-1.46l-1.81-0.435c-1.41-0.348-1.97-0.797-1.97-1.58 0-0.87 0.928-1.55 2.12-1.55 1.41 0 2.57 0.739 3.58 2.29l0.464-0.174z" fill="#7b8d42"/>
  <path d="m50.4 11.8h-0.58c-0.739 0.29-1.09 0.377-2.06 0.493v0.449l0.319 0.029c0.797 0.101 0.957 0.377 0.942 1.62v6.13c0 0.797-0.261 1.15-0.899 1.2l-0.362 0.029v0.435h3.9v-0.435l-0.362-0.029c-0.638-0.058-0.899-0.406-0.899-1.2v-3.61c0.855-0.797 1.67-1.19 2.51-1.19 0.826 0 1.25 0.493 1.25 1.46v3.33c0 0.797-0.261 1.15-0.899 1.2l-0.362 0.029v0.435h3.9v-0.435l-0.362-0.029c-0.638-0.058-0.899-0.406-0.899-1.2v-3.42c0-0.899-0.159-1.32-0.652-1.65-0.406-0.275-0.957-0.42-1.62-0.42-1.01 0-1.91 0.377-2.86 1.2z" fill="#f6ad49"/>
  <path d="m60 15.2h-0.493c-0.884 0.159-1.36 0.232-2.13 0.29v0.435l0.29 0.029c0.768 0.087 0.957 0.319 0.957 1.2v3.41c0 0.797-0.261 1.15-0.899 1.2l-0.362 0.029v0.435h3.89v-0.435l-0.348-0.029c-0.638-0.058-0.899-0.406-0.899-1.2zm-0.667-2.45c-0.493 0-0.884 0.391-0.884 0.87 0 0.493 0.391 0.884 0.884 0.884 0.478 0 0.87-0.391 0.87-0.884 0-0.478-0.391-0.87-0.87-0.87z" fill="#895b8a"/>
  <path d="m62.3 32.9v-0.435c-0.986-0.217-1.36-0.507-2.07-1.61l-2.75-4.49 1.74-1.52c0.884-0.754 1.67-1.2 2.31-1.33l0.101-0.029v-0.449h-4.15v0.449c0.435 0.0435 0.536 0.058 0.638 0.101 0.232 0.087 0.348 0.275 0.348 0.507 0 0.333-0.116 0.493-0.855 1.15-0.174 0.145-0.275 0.246-0.333 0.29l-0.087 0.0725-2.55 2.31v-2.78c0.0145-1.2 0.188-1.51 0.942-1.59l0.594-0.0435v-0.449h-4.29v0.449l0.362 0.0435c0.754 0.087 0.928 0.377 0.942 1.59v5.7c-0.0145 1.22-0.188 1.51-0.942 1.59l-0.362 0.0435v0.449h4.29v-0.449l-0.594-0.0435c-0.754-0.087-0.928-0.391-0.942-1.59v-2.02l1.68-1.49 2.33 3.73c0.246 0.406 0.333 0.609 0.333 0.812 0 0.362-0.246 0.522-0.884 0.58-0.0435 0-0.145 0.0145-0.261 0.029v0.449z" fill="#5383c3"/>
  <path d="m65.4 25.8h-0.493c-0.884 0.159-1.36 0.232-2.13 0.29v0.435l0.29 0.029c0.768 0.087 0.957 0.319 0.957 1.2v3.41c0 0.797-0.261 1.15-0.899 1.2l-0.362 0.029v0.435h3.89v-0.435l-0.348-0.029c-0.638-0.058-0.899-0.406-0.899-1.2zm-0.667-2.45c-0.493 0-0.884 0.391-0.884 0.87 0 0.493 0.391 0.884 0.884 0.884 0.478 0 0.87-0.391 0.87-0.884 0-0.478-0.391-0.87-0.87-0.87z" fill="#895b8a"/>
 </g>
</svg>
